<?xml version="1.0" ?><!DOCTYPE svg  PUBLIC '-//W3C//DTD SVG 1.1//EN'  'http://www.w3.org/Graphics/SVG/1.1/DTD/svg11.dtd'><svg enable-background="new 0 0 48 48" height="48px" version="1.1" viewBox="0 0 48 48" width="48px" xml:space="preserve" xmlns="http://www.w3.org/2000/svg" xmlns:xlink="http://www.w3.org/1999/xlink"><g id="Layer_4"><g><circle cx="24" cy="5.869" fill="#241F20" r="5.712"/><path d="M45.068,31.365l-8.25-3.699l-2.385-8.752l-0.359-1.556h-0.014c-0.162-0.646-0.648-1.162-1.293-1.339    l-0.186-0.07l-1.344-0.574c-0.289-0.126-0.662-0.247-1.166-0.359c-6.512-1.484-11.952,0-11.952,0    c-1.022,0.219-2.748,1.265-2.748,1.265h0.001l-0.152,0.07l0.01,0.019c-0.464,0.247-0.828,0.651-0.981,1.162H14.25l-0.03,0.103    c-0.003,0.021-0.014,0.042-0.018,0.063l-2.534,8.714l-0.476,1.314l-8.262,3.635l1.76,4l2.545-1.121l-1.133,2.555l11.673,5.166    l-2.439,1.082l1.948,4.4l6.434-2.852l7.341,3.252l1.951-4.4l-3.352-1.482l12.586-5.568l-1.045-2.359l2.23,0.998L45.068,31.365z     M12.139,34.199l-2.4-1.062l4.961-2.182l-0.018-0.041l2.275-6.253l1.163,7.417L12.139,34.199z M36.441,33.689l-6.369-1.611    l0.988-6.891l0.051-0.774l2.516,6.136l-0.033,0.07l0.07,0.033l0.014,0.023l0.016-0.01l4.764,2.133L36.441,33.689z" fill="#241F20"/></g></g></svg>